<svg width="16" height="16" viewBox="0 0 16 16" fill="none" xmlns="http://www.w3.org/2000/svg">
  <path
    d="M14.1693 6.1024C12.6293 3.6824 10.3759 2.28906 8.0026 2.28906C6.81594 2.28906 5.6626 2.63573 4.60927 3.2824C3.55594 3.93573 2.60927 4.88906 1.83594 6.1024C1.16927 7.14906 1.16927 8.84906 1.83594 9.89573C3.37594 12.3224 5.62927 13.7091 8.0026 13.7091C9.18927 13.7091 10.3426 13.3624 11.3959 12.7157C12.4493 12.0624 13.3959 11.1091 14.1693 9.89573C14.8359 8.85573 14.8359 7.14906 14.1693 6.1024ZM8.0026 10.6957C6.50927 10.6957 5.30927 9.48906 5.30927 8.0024C5.30927 6.51573 6.50927 5.30906 8.0026 5.30906C9.49594 5.30906 10.6959 6.51573 10.6959 8.0024C10.6959 9.48906 9.49594 10.6957 8.0026 10.6957Z"
    fill="#667085" />
  <path
    d="M8.00156 6.09375C6.9549 6.09375 6.10156 6.94708 6.10156 8.00042C6.10156 9.04708 6.9549 9.90042 8.00156 9.90042C9.04823 9.90042 9.90823 9.04708 9.90823 8.00042C9.90823 6.95375 9.04823 6.09375 8.00156 6.09375Z"
    fill="#667085" />
</svg>
